HIERARCHY
ROOT Hips
{
  OFFSET 5.72205e-005 65.662 3.42586
  CHANNELS 6 Xposition Yposition Zposition Zrotation Xrotation Yrotation
  JOINT Chest
  {
    OFFSET 0 8.7983 -4.7612
    CHANNELS 3 Zrotation Xrotation Yrotation
    JOINT Chest2
    {
      OFFSET 0 8.0291 0.4195
      CHANNELS 3 Zrotation Xrotation Yrotation
      JOINT Chest3
      {
        OFFSET 0 9.9351 -2.2114
        CHANNELS 3 Zrotation Xrotation Yrotation
        JOINT Neck
        {
          OFFSET 0 22.3885 -0.4656
          CHANNELS 3 Zrotation Xrotation Yrotation
          JOINT Head
          {
            OFFSET -0.0001 12.643 3.4389
            CHANNELS 3 Zrotation Xrotation Yrotation
            End Site
            {
              OFFSET 0.0001 17.6655 0.5274
            }
          }
        }
        JOINT LeftCollar
        {
          OFFSET 2.2603 21.606 7.4023
          CHANNELS 3 Zrotation Xrotation Yrotation
          JOINT LeftShoulder
          {
            OFFSET 13.5163 -1.1332 -5.0146
            CHANNELS 3 Zrotation Xrotation Yrotation
            JOINT LeftElbow
            {
              OFFSET -0.0995 -28.05 -0.2431
              CHANNELS 3 Zrotation Xrotation Yrotation
              JOINT LeftWrist
              {
                OFFSET 0.0679 -23.3996 -0.1402
                CHANNELS 3 Zrotation Xrotation Yrotation
                JOINT LeftFinger1
                {
                  OFFSET 0.7932 -9.069 2.5189
                  CHANNELS 3 Zrotation Xrotation Yrotation
                  JOINT LeftFinger11
                  {
                    OFFSET -0.8272 -3.3923 0.5977
                    CHANNELS 3 Zrotation Xrotation Yrotation
                    JOINT LeftFinger12
                    {
                      OFFSET -0.5649 -2.3158 0.4082
                      CHANNELS 3 Zrotation Xrotation Yrotation
                      End Site
                      {
                        OFFSET -0.4919 -1.6479 0.2673
                      }
                    }
                  }
                }
                JOINT LeftFinger2
                {
                  OFFSET 0.9159 -9.2044 0.2193
                  CHANNELS 3 Zrotation Xrotation Yrotation
                  JOINT LeftFinger21
                  {
                    OFFSET 0.0117 -4.1944 -0.0248
                    CHANNELS 3 Zrotation Xrotation Yrotation
                    JOINT LeftFinger22
                    {
                      OFFSET 0.0071 -2.3249 -0.0142
                      CHANNELS 3 Zrotation Xrotation Yrotation
                      End Site
                      {
                        OFFSET -0.1475 -2.0882 0.0028
                      }
                    }
                  }
                }
                JOINT LeftFinger3
                {
                  OFFSET 0.6113 -8.7231 -2.0637
                  CHANNELS 3 Zrotation Xrotation Yrotation
                  JOINT LeftFinger31
                  {
                    OFFSET -0.1927 -3.8059 -0.2383
                    CHANNELS 3 Zrotation Xrotation Yrotation
                    JOINT LeftFinger32
                    {
                      OFFSET -0.1091 -2.1688 -0.1362
                      CHANNELS 3 Zrotation Xrotation Yrotation
                      End Site
                      {
                        OFFSET -0.2358 -1.9176 -0.0906
                      }
                    }
                  }
                }
                JOINT LeftFinger4
                {
                  OFFSET -0.6151 -8.0947 -3.5641
                  CHANNELS 3 Zrotation Xrotation Yrotation
                  JOINT LeftFinger41
                  {
                    OFFSET -0.4882 -2.341 -0.6462
                    CHANNELS 3 Zrotation Xrotation Yrotation
                    JOINT LeftFinger42
                    {
                      OFFSET -0.3575 -1.7167 -0.4742
                      CHANNELS 3 Zrotation Xrotation Yrotation
                      End Site
                      {
                        OFFSET -0.4187 -1.5237 -0.3496
                      }
                    }
                  }
                }
                JOINT LeftFinger0
                {
                  OFFSET -1.42 -1.8761 1.4223
                  CHANNELS 3 Zrotation Xrotation Yrotation
                  JOINT LeftFinger01
                  {
                    OFFSET -1.1471 -3.4929 2.6334
                    CHANNELS 3 Zrotation Xrotation Yrotation
                    JOINT LeftFinger02
                    {
                      OFFSET -0.823 -2.3 1.6571
                      CHANNELS 3 Zrotation Xrotation Yrotation
                      End Site
                      {
                        OFFSET -0.5822 -1.6914 1.1582
                      }
                    }
                  }
                }
              }
            }
          }
        }
        JOINT RightCollar
        {
          OFFSET -2.2603 21.606 7.4023
          CHANNELS 3 Zrotation Xrotation Yrotation
          JOINT RightShoulder
          {
            OFFSET -13.5187 -1.1334 -5.0155
            CHANNELS 3 Zrotation Xrotation Yrotation
            JOINT RightElbow
            {
              OFFSET 0.0994 -28.0499 -0.2431
              CHANNELS 3 Zrotation Xrotation Yrotation
              JOINT RightWrist
              {
                OFFSET -0.0679 -23.3996 -0.1402
                CHANNELS 3 Zrotation Xrotation Yrotation
                JOINT RightFinger1
                {
                  OFFSET -0.7932 -9.0691 2.5189
                  CHANNELS 3 Zrotation Xrotation Yrotation
                  JOINT RightFinger11
                  {
                    OFFSET 0.8272 -3.3923 0.5977
                    CHANNELS 3 Zrotation Xrotation Yrotation
                    JOINT RightFinger12
                    {
                      OFFSET 0.565 -2.3158 0.4082
                      CHANNELS 3 Zrotation Xrotation Yrotation
                      End Site
                      {
                        OFFSET 0.4919 -1.6479 0.2673
                      }
                    }
                  }
                }
                JOINT RightFinger2
                {
                  OFFSET -0.916 -9.2044 0.2193
                  CHANNELS 3 Zrotation Xrotation Yrotation
                  JOINT RightFinger21
                  {
                    OFFSET -0.0117 -4.1944 -0.0248
                    CHANNELS 3 Zrotation Xrotation Yrotation
                    JOINT RightFinger22
                    {
                      OFFSET -0.0071 -2.3249 -0.0142
                      CHANNELS 3 Zrotation Xrotation Yrotation
                      End Site
                      {
                        OFFSET 0.1475 -2.0882 0.0028
                      }
                    }
                  }
                }
                JOINT RightFinger3
                {
                  OFFSET -0.6113 -8.7231 -2.0637
                  CHANNELS 3 Zrotation Xrotation Yrotation
                  JOINT RightFinger31
                  {
                    OFFSET 0.1927 -3.8059 -0.2383
                    CHANNELS 3 Zrotation Xrotation Yrotation
                    JOINT RightFinger32
                    {
                      OFFSET 0.1091 -2.1688 -0.1362
                      CHANNELS 3 Zrotation Xrotation Yrotation
                      End Site
                      {
                        OFFSET 0.2358 -1.9176 -0.0906
                      }
                    }
                  }
                }
                JOINT RightFinger4
                {
                  OFFSET 0.6151 -8.0947 -3.564
                  CHANNELS 3 Zrotation Xrotation Yrotation
                  JOINT RightFinger41
                  {
                    OFFSET 0.4882 -2.341 -0.6462
                    CHANNELS 3 Zrotation Xrotation Yrotation
                    JOINT RightFinger42
                    {
                      OFFSET 0.3574 -1.7166 -0.4742
                      CHANNELS 3 Zrotation Xrotation Yrotation
                      End Site
                      {
                        OFFSET 0.4187 -1.5237 -0.3496
                      }
                    }
                  }
                }
                JOINT RightFinger0
                {
                  OFFSET 1.4199 -1.8761 1.4221
                  CHANNELS 3 Zrotation Xrotation Yrotation
                  JOINT RightFinger01
                  {
                    OFFSET 1.1472 -3.4929 2.6336
                    CHANNELS 3 Zrotation Xrotation Yrotation
                    JOINT RightFinger02
                    {
                      OFFSET 0.8229 -2.3 1.6571
                      CHANNELS 3 Zrotation Xrotation Yrotation
                      End Site
                      {
                        OFFSET 0.5822 -1.6914 1.1582
                      }
                    }
                  }
                }
              }
            }
          }
        }
      }
    }
  }
  JOINT RightHip
  {
    OFFSET -9.412 3.9771 -0.7758
    CHANNELS 3 Zrotation Xrotation Yrotation
    JOINT RightKnee
    {
      OFFSET -0.7531 -40.938 0
      CHANNELS 3 Zrotation Xrotation Yrotation
      JOINT RightAnkle
      {
        OFFSET 0 -40.1986 0
        CHANNELS 3 Zrotation Xrotation Yrotation
        JOINT RightToe
        {
          OFFSET 0 -4.4182 9.239
          CHANNELS 3 Zrotation Xrotation Yrotation
          End Site
          {
            OFFSET 0 0 6.1981
          }
        }
      }
    }
  }
  JOINT LeftHip
  {
    OFFSET 9.4119 3.9773 -0.7758
    CHANNELS 3 Zrotation Xrotation Yrotation
    JOINT LeftKnee
    {
      OFFSET 0.7532 -40.9383 0
      CHANNELS 3 Zrotation Xrotation Yrotation
      JOINT LeftAnkle
      {
        OFFSET 0 -40.1986 0
        CHANNELS 3 Zrotation Xrotation Yrotation
        JOINT LeftToe
        {
          OFFSET 0 -4.4182 9.239
          CHANNELS 3 Zrotation Xrotation Yrotation
          End Site
          {
            OFFSET 0 0 6.1981
          }
        }
      }
    }
  }
}
MOTION
Frames:	6
Frame Time:	0.0333333
39.8408 3.29455 25.866 6.68241e-008 70.997 8.08067e-009 -0.323987 3.80841 -0.0468209 -0.646999 7.61702 -0.0722429 -0.647 7.61701 -0.072243 -4.91404e-006 -28.7569 -7.09811e-007 -0.060393 -22.9126 -0.0250691 -6.20202 -5.52588 -9.01879 38.1656 -55.0592 43.4452 -162.624 -57.0655 154.779 -6.41388 4.04201 -4.79096 -1.71957e-006 2.65241e-006 -1.60978e-006 1.70491e-006 -1.01911e-007 -8.57292e-008 1.98785e-016 -3.97569e-016 -1.98785e-015 -1.71957e-006 2.65241e-006 -1.60978e-006 -0.0128357 0.00232638 8.80982e-005 3.04492e-006 -6.94411e-006 -4.39485e-006 -1.71957e-006 2.65241e-006 -1.60978e-006 -0.0160411 0.00298915 0.000861707 1.98785e-016 -7.95139e-016 -6.58474e-016 -1.71957e-006 2.65241e-006 -1.60978e-006 -0.0125546 0.00311807 0.00282611 -3.97569e-016 -1.19271e-015 -2.69602e-015 -1.71957e-006 2.65241e-006 -1.60978e-006 1.70491e-006 -1.01911e-007 -8.57292e-008 1.98785e-016 -3.97569e-016 -1.98785e-015 5.5269 -5.40691 3.31729 -30.8304 -56.7586 -35.5186 166.972 -56.5749 -151.635 6.42921 3.89254 4.91742 -1.22047e-006 -1.18049e-005 1.21866e-006 -3.97569e-016 -2.38542e-015 -2.23633e-015 -3.97569e-016 7.95139e-016 9.19379e-016 -1.22047e-006 -1.18049e-005 1.21866e-006 0.0129434 0.00233921 -9.53032e-005 4.96564e-032 7.95139e-016 -3.57812e-015 -1.22047e-006 -1.18049e-005 1.21866e-006 0.0163232 0.00303508 -0.000872111 -7.95139e-016 1.59028e-015 -4.44781e-015 -1.22047e-006 -1.18049e-005 1.21866e-006 0.0145707 0.00368463 -0.00326776 -3.97569e-016 -7.95139e-016 -3.97569e-016 -1.22047e-006 -1.18049e-005 1.21866e-006 -3.97569e-016 -2.38542e-015 -2.23633e-015 -3.97569e-016 7.95139e-016 9.19379e-016 -99.6518 -31.7082 -84.6417 177.037 41.7668 178.489 -6.16156 7.47445 -3.00914 -9.40974e-006 6.60042e-007 -7.36802e-006 99.6469 -31.7134 84.6377 -177.039 41.7665 -178.492 6.15958 7.4729 3.00574 3.53691e-007 -5.10963e-006 2.23578e-006 
39.8408 3.29455 25.9001 6.68241e-008 70.997 8.08067e-009 -0.323987 3.80841 -0.0468209 -0.646999 7.61702 -0.0722429 -0.647 7.61701 -0.072243 -4.33064e-006 -28.5067 -4.6073e-007 -0.0603759 -22.8826 -0.0250294 -6.30534 -5.24775 -9.20721 38.3234 -55.0086 43.5895 -162.624 -57.0655 154.779 -6.42161 3.90404 -4.92496 1.98785e-016 7.95139e-016 7.82715e-016 -1.70482e-006 -2.51599e-006 8.486e-008 1.98785e-016 -7.95139e-016 -1.70209e-015 1.98785e-016 7.95139e-016 7.82715e-016 -0.0128131 0.00231585 8.17013e-005 -1.13339e-006 1.7344e-007 5.57229e-006 1.98785e-016 7.95139e-016 7.82715e-016 -0.0160617 0.0029816 0.000854536 1.98785e-016 -3.97569e-016 1.2424e-017 1.98785e-016 7.95139e-016 7.82715e-016 -0.0125754 0.00310626 0.00282576 2.41386e-033 -3.97569e-016 3.47873e-016 1.98785e-016 7.95139e-016 7.82715e-016 -1.70482e-006 -2.51599e-006 8.486e-008 1.98785e-016 -7.95139e-016 -1.70209e-015 5.62057 -5.12619 3.51756 -31.008 -56.7225 -35.6855 166.972 -56.5749 -151.635 6.42759 3.75519 5.05397 7.95139e-016 7.95139e-016 -5.71506e-016 -7.34994e-006 2.51754e-006 -3.85443e-006 6.79596e-006 4.24889e-006 -2.12744e-006 7.95139e-016 7.95139e-016 -5.71506e-016 0.01295 0.00233394 -9.0204e-005 -3.97569e-016 0 -4.17448e-015 7.95139e-016 7.95139e-016 -5.71506e-016 0.0163097 0.00303691 -0.000870612 2.8707e-006 6.92365e-006 -2.97161e-006 7.95139e-016 7.95139e-016 -5.71506e-016 0.0145594 0.0036879 -0.00326822 5.93734e-006 -1.82772e-006 8.59945e-006 7.95139e-016 7.95139e-016 -5.71506e-016 -7.34994e-006 2.51754e-006 -3.85443e-006 6.79596e-006 4.24889e-006 -2.12744e-006 -99.6518 -31.7082 -84.6417 177.037 41.7667 178.489 -6.16157 7.47442 -3.00916 -2.6885e-006 8.61099e-007 -2.10515e-006 99.6469 -31.7134 84.6377 -177.039 41.7664 -178.492 6.15956 7.47285 3.00573 2.33476e-006 6.67767e-008 -1.30576e-007 
39.8408 3.29455 25.9342 8.44914e-008 70.997 -9.73502e-009 -0.323987 3.80841 -0.0468209 -0.646999 7.61702 -0.0722429 -0.647 7.61701 -0.072243 -4.75726e-006 -28.2565 -3.29212e-007 -0.0603577 -22.8526 -0.0249906 -6.40769 -4.96929 -9.39502 38.4807 -54.9577 43.7334 -162.624 -57.0655 154.779 -6.42967 3.76608 -5.05894 -1.7153e-006 -2.80974e-006 3.47544e-006 9.93923e-016 3.97569e-016 -8.57259e-016 -9.82979e-006 1.44793e-005 4.72756e-006 -1.7153e-006 -2.80974e-006 3.47544e-006 -0.0128204 0.00232097 8.67276e-005 1.71073e-006 2.5723e-006 -1.77966e-006 -1.7153e-006 -2.80974e-006 3.47544e-006 -0.0160323 0.0029879 0.000855272 -5.96354e-016 1.35174e-014 2.33572e-015 -1.7153e-006 -2.80974e-006 3.47544e-006 -0.0126248 0.00314114 0.00283928 3.97569e-016 -3.97569e-016 -4.33599e-015 -1.7153e-006 -2.80974e-006 3.47544e-006 9.93923e-016 3.97569e-016 -8.57259e-016 -9.82979e-006 1.44793e-005 4.72756e-006 5.71321 -4.84514 3.71728 -31.1851 -56.6862 -35.8518 166.972 -56.5748 -151.635 6.42629 3.61789 5.19056 1.70351e-006 -5.96635e-009 1.50576e-006 -1.70351e-006 5.9664e-009 -1.50576e-006 1.70177e-006 -1.86469e-006 -1.23796e-007 1.70351e-006 -5.96635e-009 1.50576e-006 0.0129408 0.0023092 -9.50343e-005 -3.97569e-016 1.27222e-014 -1.76421e-015 1.70351e-006 -5.96635e-009 1.50576e-006 0.016319 0.00304089 -0.000881418 1.04916e-005 4.3663e-006 2.24877e-006 1.70351e-006 -5.96635e-009 1.50576e-006 0.0145671 0.00369099 -0.00327051 5.59404e-007 -2.9044e-006 1.09269e-006 1.70351e-006 -5.96635e-009 1.50576e-006 -1.70351e-006 5.9664e-009 -1.50576e-006 1.70177e-006 -1.86469e-006 -1.23796e-007 -99.6518 -31.7082 -84.6417 177.037 41.7668 178.489 -6.16153 7.4744 -3.00916 -1.27344e-005 5.82144e-006 -6.05529e-006 99.6469 -31.7134 84.6377 -177.039 41.7664 -178.492 6.15959 7.47287 3.00573 5.49951e-006 5.21292e-006 4.25881e-006 
39.8408 3.29455 25.9683 6.68241e-008 70.997 8.08067e-009 -0.323987 3.80841 -0.0468209 -0.646999 7.61702 -0.0722429 -0.647 7.61701 -0.072243 -4.30044e-006 -28.0063 -2.67737e-007 -0.0603393 -22.8226 -0.0249524 -6.50907 -4.69051 -9.58225 38.6375 -54.9067 43.8768 -162.624 -57.0655 154.779 -6.43805 3.62812 -5.19295 5.09851e-006 2.41061e-006 1.44628e-006 7.95139e-016 0 3.60297e-015 7.95139e-016 -3.97569e-016 3.54085e-015 5.09851e-006 2.41061e-006 1.44628e-006 -0.0128035 0.00231833 9.49778e-005 1.49142e-032 -3.97569e-016 2.14936e-015 5.09851e-006 2.41061e-006 1.44628e-006 -0.0160294 0.00299561 0.000867726 5.17255e-032 -7.95139e-016 3.72721e-015 5.09851e-006 2.41061e-006 1.44628e-006 -0.0126258 0.00312728 0.0028357 7.75882e-034 -3.97569e-016 1.11816e-016 5.09851e-006 2.41061e-006 1.44628e-006 7.95139e-016 0 3.60297e-015 7.95139e-016 -3.97569e-016 3.54085e-015 5.80483 -4.56381 3.91644 -31.3622 -56.6495 -36.0182 166.972 -56.5748 -151.635 6.42535 3.48059 5.32708 2.27907e-006 8.51526e-008 4.22934e-006 1.7016e-006 -1.08338e-008 -1.23123e-007 7.95139e-016 1.03368e-014 -5.39203e-015 2.27907e-006 8.51526e-008 4.22934e-006 0.012948 0.0023087 -8.72905e-005 5.97729e-006 -2.0541e-006 5.34473e-006 2.27907e-006 8.51526e-008 4.22934e-006 0.0163387 0.0030321 -0.000873472 7.95139e-016 7.95139e-016 4.47266e-015 2.27907e-006 8.51526e-008 4.22934e-006 0.0146078 0.00367632 -0.00326773 1.71065e-006 -2.57406e-006 -1.75284e-006 2.27907e-006 8.51526e-008 4.22934e-006 1.7016e-006 -1.08338e-008 -1.23123e-007 7.95139e-016 1.03368e-014 -5.39203e-015 -99.6518 -31.7082 -84.6417 177.037 41.7667 178.489 -6.16158 7.47442 -3.00917 -1.17442e-005 5.07805e-006 -7.23795e-006 99.6469 -31.7134 84.6377 -177.039 41.7664 -178.492 6.15955 7.47288 3.00577 1.02309e-005 -6.30346e-006 -5.41486e-006 
39.8408 3.29455 26.0024 6.68241e-008 70.997 8.08067e-009 -0.323987 3.80841 -0.0468209 -0.646999 7.61702 -0.0722429 -0.647 7.61701 -0.072243 -4.6841e-006 -27.7561 -4.98932e-007 -0.0603212 -22.7926 -0.0249134 -6.60949 -4.41145 -9.7689 38.7942 -54.8553 44.0201 -162.624 -57.0654 154.779 -6.44675 3.49024 -5.32689 3.44836e-034 3.97569e-016 -4.96962e-017 -3.97569e-016 1.19271e-015 6.32384e-015 -4.29321e-032 7.95139e-016 3.09359e-015 3.44836e-034 3.97569e-016 -4.96962e-017 -0.0128241 0.00232762 8.65514e-005 7.95139e-016 -1.19271e-015 3.97569e-015 3.44836e-034 3.97569e-016 -4.96962e-017 -0.0160342 0.00298481 0.000851908 3.97569e-016 3.97569e-016 2.28602e-015 3.44836e-034 3.97569e-016 -4.96962e-017 -0.0126027 0.00313132 0.002829 6.86965e-006 -7.58555e-006 -3.72147e-006 3.44836e-034 3.97569e-016 -4.96962e-017 -3.97569e-016 1.19271e-015 6.32384e-015 -4.29321e-032 7.95139e-016 3.09359e-015 5.89542 -4.28216 4.11507 -31.5385 -56.6126 -36.1837 166.972 -56.5748 -151.635 6.42475 3.34322 5.46363 4.49095e-006 9.97977e-006 -3.09006e-006 -4.50906e-006 -7.06135e-006 4.71984e-006 -8.06917e-032 -2.38542e-015 -1.93815e-015 4.49095e-006 9.97977e-006 -3.09006e-006 0.0129425 0.00231169 -8.94879e-005 8.58643e-032 7.95139e-016 -6.18717e-015 4.49095e-006 9.97977e-006 -3.09006e-006 0.0163359 0.00304027 -0.000875044 7.95139e-016 7.95139e-016 -4.96962e-017 4.49095e-006 9.97977e-006 -3.09006e-006 0.0145764 0.00367674 -0.00325253 -1.19271e-015 1.59028e-015 7.45443e-016 4.49095e-006 9.97977e-006 -3.09006e-006 -4.50906e-006 -7.06135e-006 4.71984e-006 -8.06917e-032 -2.38542e-015 -1.93815e-015 -99.6518 -31.7082 -84.6417 177.037 41.7667 178.489 -6.16154 7.4744 -3.00919 -2.13079e-005 1.06171e-006 8.4046e-006 99.647 -31.7134 84.6377 -177.039 41.7665 -178.492 6.15961 7.47294 3.00572 1.73577e-005 2.61719e-006 -5.75817e-006 
39.8408 3.29455 26.0366 8.44914e-008 70.997 -9.73502e-009 -0.323987 3.80841 -0.0468209 -0.646999 7.61702 -0.0722429 -0.647 7.61701 -0.072243 -4.87034e-006 -27.506 -8.4506e-007 -0.0603037 -22.7626 -0.0248755 -6.70896 -4.13205 -9.95497 38.9502 -54.8037 44.1626 -162.624 -57.0654 154.779 -6.45576 3.35235 -5.46089 1.04338e-005 -4.36965e-006 2.46994e-006 3.97569e-016 3.97569e-016 -1.16786e-015 -1.73944e-006 -2.62586e-006 1.7778e-006 1.04338e-005 -4.36965e-006 2.46994e-006 -0.0128 0.00231464 8.50557e-005 -1.6325e-006 2.03184e-006 -3.31085e-006 1.04338e-005 -4.36965e-006 2.46994e-006 -0.0160753 0.00300381 0.000855447 1.02256e-005 -4.4886e-006 -4.89104e-007 1.04338e-005 -4.36965e-006 2.46994e-006 -0.0125814 0.00311458 0.0028226 -2.15684e-006 -8.81172e-006 -4.14119e-006 1.04338e-005 -4.36965e-006 2.46994e-006 3.97569e-016 3.97569e-016 -1.16786e-015 -1.73944e-006 -2.62586e-006 1.7778e-006 5.98499 -4.00024 4.31316 -31.7146 -56.5755 -36.349 166.972 -56.5748 -151.635 6.42443 3.20596 5.60011 -2.81748e-006 -6.83429e-006 6.22593e-006 6.21991e-006 4.97052e-006 -6.46963e-006 -6.21991e-006 -4.97052e-006 6.46963e-006 -2.81748e-006 -6.83429e-006 6.22593e-006 0.012948 0.00231614 -8.6603e-005 -3.43117e-006 4.50782e-006 1.8735e-006 -2.81748e-006 -6.83429e-006 6.22593e-006 0.0163186 0.00302997 -0.000876676 -4.51804e-006 -5.12363e-006 6.34749e-006 -2.81748e-006 -6.83429e-006 6.22593e-006 0.0145608 0.00367855 -0.0032639 -5.42519e-006 -5.01814e-006 -9.95738e-007 -2.81748e-006 -6.83429e-006 6.22593e-006 6.21991e-006 4.97052e-006 -6.46963e-006 -6.21991e-006 -4.97052e-006 6.46963e-006 -99.6518 -31.7082 -84.6417 177.037 41.7667 178.489 -6.16154 7.4744 -3.00919 -2.13079e-005 1.06171e-006 8.4046e-006 99.6469 -31.7134 84.6376 -177.039 41.7665 -178.492 6.15959 7.47289 3.00573 6.4054e-006 -9.64792e-006 -2.72431e-006 
